<svg width="147" height="40" fill="none" xmlns="http://www.w3.org/2000/svg"><path d="M72.2 18.4c0-.3.1-.6.4-.9.2-.2.5-.3.9-.3h7.2c5 0 8.4 2.6 8.4 7 0 4.9-4 7.4-8.9 7.4h-5.4v6.7a1.2 1.2 0 01-.4 1 1.3 1.3 0 01-1.4.3 1.3 1.3 0 01-.7-.8l-.1-.5V18.4zm8.1 10.9c3.8 0 6.3-2 6.3-5 0-3.2-2.5-4.8-6-4.8h-5.8v9.7h5.5zM94 18.3a1.2 1.2 0 01.4-1 1.3 1.3 0 011.4-.3 1.3 1.3 0 01.7.8v20.5a1.2 1.2 0 01-.3 1 1.3 1.3 0 01-.9.4 1.3 1.3 0 01-1-.4 1.3 1.3 0 01-.3-1v-20zM103.2 18.3c0-.3.1-.6.4-.9.2-.2.5-.3.9-.3h.3a1.6 1.6 0 011.3.7L120 35V18.2c0-.3 0-.6.3-.8a1.3 1.3 0 011.8 0c.2.2.4.5.4.8v20.1a1 1 0 01-.4.9 1.1 1.1 0 01-.8.3h-.1a1.7 1.7 0 01-1.4-.8l-14-17.6v17.2c0 .3-.2.7-.4.9l-.8.4c-.4 0-.7-.2-1-.4-.1-.2-.3-.5-.3-.9v-20zM128.7 18.3a1.2 1.2 0 01.4-1 1.3 1.3 0 011-.4 1.3 1.3 0 01.9.4 1.3 1.3 0 01.3 1v12.1l12.9-13c.3-.2.6-.4 1-.4.3 0 .6.1.9.4.2.2.3.5.3.8a1.3 1.3 0 01-.4 1l-8 7.7 8.6 10.5c.3.2.4.6.4.9a1.3 1.3 0 01-.4 1 1.3 1.3 0 01-1 .3 1.3 1.3 0 01-1-.6l-8.4-10.4-4.9 4.8v4.9a1.2 1.2 0 01-.8 1.1 1.3 1.3 0 01-1.7-.6V18.3z" fill="#fff"/><path d="M99 9.7c-1 0-2-.3-2.6-1-.7-.7-1.1-1.6-1.1-2.5 0 1-.4 1.8-1 2.5-.8.7-1.7 1-2.6 1 1 0 1.8.4 2.5 1.1.7.7 1 1.6 1 2.5.1-1 .5-1.8 1.2-2.5.6-.7 1.6-1 2.5-1z" fill="#D22856"/><path d="M43.3 19h.7A2.5 2.5 0 0042 18a2 2 0 01-2-1.4l-2 .8h.2c.5 0 1 .2 1.4.6.4.4.6.9.6 1.4v.3a9 9 0 013.2-.5z" fill="#fff"/><path d="M60.7 27.6l-5.2-21C55.2 4.2 53 0 47 0c-.4 0-.8.2-1 .4a1.5 1.5 0 000 2.1c.2.3.6.5 1 .5 4.9 0 5.6 3.6 5.7 4l4.7 19.5h-2a11.7 11.7 0 00-5.4-8.4 2.5 2.5 0 00-1.5 2.3v.2a9.1 9.1 0 014 7.4l-.1 1.5c-.4 2-1.4 4-3 5.4a9.1 9.1 0 01-11.9 0 8.8 8.8 0 01-3.1-7 9 9 0 011-3.9 2 2 0 01-1.4-.6 2 2 0 01-.6-1.3l-.1-.5c-1 1.5-1.6 3.2-1.8 5h-2c-.2-3-1.6-5.7-3.8-7.6a12.2 12.2 0 00-16.1 0c-2.3 2-3.7 4.6-4 7.5h-2L8.1 7.1C8.2 6.6 9 3 14 3c.4 0 .8-.2 1-.5a1.5 1.5 0 000-2c-.2-.3-.6-.5-1-.5-6 0-8.3 4.2-8.6 6.6L0 27.6A1.4 1.4 0 00.3 29a1.4 1.4 0 001.2.5h4c0 .7.2 1.3.4 1.9v-.4c0-.5.3-1 .7-1.4a2 2 0 011.9-.5 8.8 8.8 0 013-8 9.1 9.1 0 0111.9 0 8.8 8.8 0 013.2 7c0 2.3-1 4.6-2.7 6.2a9.2 9.2 0 01-11.8 1 2 2 0 01-1.3.4l-.6.2-.2.6c0 .2 0 .5-.2.8a12.2 12.2 0 0015.7-.2c2.2-2 3.6-4.6 4-7.5h1.8a12.2 12.2 0 0020 7.5c2.2-2 3.6-4.6 4-7.5h4a1.4 1.4 0 001.2-.6 1.4 1.4 0 00.2-1.3z" fill="#fff"/><path d="M51 16a4.6 4.6 0 01-4.3-2.8c-.2-.6-.3-1.1-.3-1.7 0 1.2-.5 2.3-1.3 3.1-.9.9-2 1.3-3.2 1.3 1.2 0 2.3.5 3.2 1.3.8.9 1.3 2 1.3 3.2 0-1.2.5-2.3 1.3-3.2.9-.8 2-1.3 3.2-1.3zM38 19.4c-.7 0-1.4-.3-1.9-.8s-.8-1.2-.8-2c0 .8-.3 1.5-.8 2s-1.2.8-2 .8c.8 0 1.5.3 2 .8s.8 1.2.8 1.9c0-.7.3-1.4.8-2 .5-.4 1.2-.7 2-.7zM10.8 33.6c-.7 0-1.4-.3-2-.8-.5-.5-.8-1.2-.8-1.9 0 .7-.2 1.4-.8 2-.5.5-1.2.7-2 .7.8 0 1.5.3 2 .8.6.5.8 1.2.8 2 0-.8.3-1.4.8-2 .6-.5 1.3-.8 2-.8z" fill="#D22856"/></svg>