<svg width="74" height="23" fill="none" xmlns="http://www.w3.org/2000/svg"><path d="M0 1.5A1.3 1.3 0 011.3.3h7c5.1 0 8.5 2.7 8.5 7v.2c0 4.8-4 7.3-8.8 7.3H2.5v6.8A1.3 1.3 0 011.3 23 1.3 1.3 0 010 21.6v-20zm8 11c3.8 0 6.2-2 6.2-5 0-3.2-2.4-4.9-6-4.9H2.7v9.9H8zM21.6 1.4A1.3 1.3 0 0122.9 0 1.3 1.3 0 0124 1.4v20.2A1.3 1.3 0 0123 23a1.3 1.3 0 01-1.3-1.4V1.4zM30.7 1.4A1.3 1.3 0 0131.9.2h.4a1.5 1.5 0 011.3.7l13.6 17.4v-17A1.2 1.2 0 0148.4.2a1.2 1.2 0 011.2 1.3v20.3a1.1 1.1 0 01-1.1 1.1h-.2A1.7 1.7 0 0147 22L33.1 4.2v17.5a1.3 1.3 0 01-1.2 1.2 1.2 1.2 0 01-1.2-1.2V1.4zM56 1.4A1.3 1.3 0 0157.1 0a1.3 1.3 0 011.3 1.4v12.3L71.2.6c.3-.3.6-.5 1-.5a1.3 1.3 0 011.2 1.3 1.3 1.3 0 01-.4.9l-8 7.9 8.7 10.5c.2.2.3.6.3 1a1.3 1.3 0 01-1.3 1.2 1.2 1.2 0 01-1-.6L63.3 12l-4.8 4.8v4.9a1.3 1.3 0 01-1.3 1.3 1.3 1.3 0 01-1.3-1.3V1.4z" fill="#fff"/></svg>